<?xml version="1.0" encoding="utf-8"?>
<!-- Generator: Adobe Illustrator 16.2.0, SVG Export Plug-In . SVG Version: 6.00 Build 0)  -->
<!DOCTYPE svg PUBLIC "-//W3C//DTD SVG 1.1//EN" "http://www.w3.org/Graphics/SVG/1.1/DTD/svg11.dtd">
<svg version="1.1" id="Слой_1" xmlns="http://www.w3.org/2000/svg" xmlns:xlink="http://www.w3.org/1999/xlink" x="0px" y="0px"
	 width="141.5px" height="137.25px" viewBox="0 0 141.5 137.25" enable-background="new 0 0 141.5 137.25" xml:space="preserve">
<circle fill="#F04E37" cx="121.328" cy="118.35" r="4.553"/>
<circle fill="#F04E37" cx="75.04" cy="118.357" r="4.553"/>
<path fill="none" stroke="#1D1E1C" stroke-width="4" stroke-miterlimit="10" d="M122.821,117.616
	c1.771-1.858,6.554-0.171,10.683,3.767c4.127,3.938,4.268,10.492,4.268,10.492s-6.553,0.172-10.682-3.768
	C122.96,124.169,121.048,119.472,122.821,117.616z"/>
<path fill="none" stroke="#1D1E1C" stroke-width="4" stroke-miterlimit="10" d="M74.456,117.623
	c-1.771-1.856-6.553-0.17-10.683,3.768c-4.127,3.938-4.268,10.492-4.268,10.492s6.553,0.172,10.682-3.768
	C74.316,124.177,76.227,119.48,74.456,117.623z"/>
<g>
	<path fill="#1D1E1C" d="M46.158,103.917v10.109c2.792,0,5.055-2.264,5.055-5.056S48.95,103.917,46.158,103.917z"/>
	<path fill="#1D1E1C" d="M10.99,103.917v10.109c-2.792,0-5.054-2.264-5.054-5.056S8.198,103.917,10.99,103.917z"/>
	<path fill="none" stroke="#1D1E1C" stroke-width="4" stroke-miterlimit="10" d="M52.509,98.811v-5.038
		c0-12.752-10.339-23.091-23.092-23.091S6.326,81.021,6.326,93.773v5.038H52.509z"/>
	<path fill="#FFFFFF" stroke="#1D1E1C" stroke-width="4" stroke-linejoin="round" stroke-miterlimit="10" d="M31.876,69.792h-7.71
		c9.358,1.328,7.526,29.019,7.526,29.019h12.893C44.585,98.811,46.158,72.359,31.876,69.792z"/>
	<path fill="none" stroke="#1D1E1C" stroke-width="4" stroke-miterlimit="10" d="M11.408,99.127V115.6
		c0,10.028,7.44,11.526,17.348,11.594h0.027c9.921-0.065,17.375-1.556,17.375-11.594v-0.364V99.127H11.408z"/>
	<line fill="none" stroke="#1D1E1C" stroke-width="4" stroke-miterlimit="10" x1="8.242" y1="98.871" x2="62.16" y2="98.871"/>
	<path fill="#F04E37" d="M52.509,98.811v-5.038c0-12.752-10.339-23.091-23.092-23.091S6.326,81.021,6.326,93.773v5.038H52.509z"/>
</g>
<g>
	<path fill="#1D1E1C" d="M114.827,37.23v10.108c2.792,0,5.054-2.263,5.054-5.056C119.88,39.492,117.619,37.23,114.827,37.23z"/>
	<path fill="#1D1E1C" d="M74.605,42.283c0,2.793,2.262,5.056,5.055,5.056V37.23C76.867,37.23,74.605,39.492,74.605,42.283z"/>
</g>
<path fill="none" stroke="#1D1E1C" stroke-width="4" stroke-miterlimit="10" d="M79.868,32.439v16.474
	c0,10.028,7.44,11.525,17.349,11.593h0.027c9.921-0.064,17.375-1.556,17.375-11.593v-0.364V32.439H79.868z"/>
<g>
	<polygon fill="#F04E37" points="22.152,18.843 26.824,18.843 26.824,14.171 31.496,14.171 31.496,18.843 36.168,18.843 
		36.168,23.516 31.496,23.516 31.496,28.188 26.824,28.188 26.824,23.516 22.152,23.516 	"/>
	<g>
		<path fill="#1D1E1C" d="M46.744,38.357v10.108c2.792,0,5.055-2.263,5.055-5.056C51.798,40.619,49.536,38.357,46.744,38.357z"/>
		<path fill="#1D1E1C" d="M6.521,43.41c0,2.793,2.262,5.056,5.055,5.056V38.357C8.784,38.357,6.521,40.619,6.521,43.41z"/>
	</g>
	<path fill="none" stroke="#1D1E1C" stroke-width="4" stroke-miterlimit="10" d="M11.785,33.566V50.04
		c0,10.028,7.44,11.525,17.348,11.593h0.027c9.921-0.064,17.375-1.555,17.375-11.593v-0.364V33.566H11.785z"/>
	<rect x="9.502" y="9.427" fill="none" stroke="#1D1E1C" stroke-width="4" stroke-miterlimit="10" width="39.315" height="23.505"/>
</g>
<g>
	<path fill="#1D1E1C" d="M115.998,105.742v10.109c2.793,0,5.055-2.264,5.055-5.055S118.791,105.742,115.998,105.742z"/>
	<path fill="#1D1E1C" d="M75.777,110.796c0,2.791,2.262,5.055,5.054,5.055v-10.109C78.039,105.742,75.777,108.005,75.777,110.796z"
		/>
</g>
<path fill="none" stroke="#1D1E1C" stroke-width="4" stroke-miterlimit="10" d="M81.04,100.953v16.473
	c0,10.029,7.44,11.525,17.348,11.594h0.027c9.921-0.066,17.375-1.557,17.375-11.594v-0.364v-16.108H81.04z"/>
<rect x="79.313" y="87.326" fill="none" stroke="#1D1E1C" stroke-width="4" stroke-miterlimit="10" width="38.203" height="12.992"/>
<path fill="none" stroke="#1D1E1C" stroke-width="4" stroke-miterlimit="10" d="M111.755,70.376c-2.621,0-4.984,1.092-6.67,2.84
	c-1.688-1.748-4.05-2.84-6.671-2.84s-4.983,1.092-6.671,2.84c-1.687-1.748-4.049-2.84-6.67-2.84c-5.122,0-9.275,4.152-9.275,9.273
	c0,3.199,1.625,6.012,4.088,7.676h37.059c2.464-1.664,4.085-4.478,4.085-7.676C121.03,74.529,116.877,70.376,111.755,70.376z"/>
<line fill="none" stroke="#1D1E1C" stroke-width="4" stroke-miterlimit="10" x1="71.143" y1="31.998" x2="114.619" y2="31.998"/>
<rect x="78.033" y="23.431" fill="none" stroke="#1D1E1C" stroke-width="4" stroke-miterlimit="10" width="38.42" height="8.566"/>
<path fill="none" stroke="#1D1E1C" stroke-width="4" stroke-miterlimit="10" d="M97.244,9.147
	c-8.67,4.451-24.478,6.698-24.478,6.698l4.782,7.586h19.695h19.693l4.782-7.586C121.719,15.845,105.912,13.598,97.244,9.147z"/>
<path fill="#029AD7" d="M97.244,9.147c-8.67,4.451-24.478,6.698-24.478,6.698l4.782,7.586h0.484v8.566h38.42v-8.566h0.484
	l4.782-7.586C121.719,15.845,105.912,13.598,97.244,9.147z"/>
<rect x="78.033" y="23.431" fill="none" stroke="#1D1E1C" stroke-width="4" stroke-miterlimit="10" width="38.42" height="8.566"/>
<path fill="none" stroke="#1D1E1C" stroke-width="4" stroke-miterlimit="10" d="M97.244,9.147
	c-8.67,4.451-24.478,6.698-24.478,6.698l4.782,7.586h19.695h19.693l4.782-7.586C121.719,15.845,105.912,13.598,97.244,9.147z"/>
</svg>
