<?xml version="1.0" encoding="utf-8"?>
<!-- Generator: Adobe Illustrator 16.2.0, SVG Export Plug-In . SVG Version: 6.00 Build 0)  -->
<!DOCTYPE svg PUBLIC "-//W3C//DTD SVG 1.1//EN" "http://www.w3.org/Graphics/SVG/1.1/DTD/svg11.dtd">
<svg version="1.1" id="Слой_1" xmlns="http://www.w3.org/2000/svg" xmlns:xlink="http://www.w3.org/1999/xlink" x="0px" y="0px"
	 width="141.5px" height="137.25px" viewBox="0 0 141.5 137.25" enable-background="new 0 0 141.5 137.25" xml:space="preserve">
<path fill="#F04E37" stroke="#F04E37" stroke-miterlimit="10" d="M115.834,8.358c-9.02,0-16.756,5.395-20.229,13.119
	C92.131,13.753,84.395,8.358,75.375,8.358c-12.264,0-22.203,9.94-22.203,22.205c0,0,0,0.047,0.003,0.119
	c0.018,3.152,0.699,6.143,1.902,8.855c3.456,10.031,13.187,26.012,40.527,34.811c27.34-8.799,37.072-24.779,40.527-34.811
	c1.203-2.713,1.884-5.703,1.902-8.855c0.004-0.072,0.004-0.119,0.004-0.119C138.037,18.299,128.097,8.358,115.834,8.358z"/>
<polygon fill="none" stroke="#1D1E1C" stroke-width="4" stroke-miterlimit="10" points="38.199,81.771 23.819,44.833 17.843,44.833 
	3.463,81.771 3.463,128.892 38.199,128.892 "/>
<rect x="38.199" y="81.771" fill="none" stroke="#1D1E1C" stroke-width="4" stroke-miterlimit="10" width="54.097" height="47.121"/>
<polyline fill="none" stroke="#1D1E1C" stroke-width="4" stroke-miterlimit="10" points="87.036,68.259 77.917,44.833 71.94,44.833 
	57.56,81.771 77.199,81.771 "/>
<polygon fill="none" stroke="#1D1E1C" stroke-width="4" stroke-linejoin="bevel" stroke-miterlimit="10" points="77.917,44.833 
	71.94,44.833 57.56,81.771 92.296,81.771 "/>
<line fill="none" stroke="#1D1E1C" stroke-width="4" stroke-miterlimit="10" x1="23.819" y1="44.833" x2="74.928" y2="44.833"/>
<polygon fill="#F04E37" points="10.589,101.851 10.589,79.63 21.817,79.63 21.817,88.56 60.758,88.56 60.758,98.213 21.817,98.213 
	21.817,101.851 17.634,112.909 14.851,112.909 "/>
<path fill="#029AD7" d="M81.915,102.493h-4.113h-0.123H28.217v10.016l0.035,0.006l3.394,3.395l2.03-2.031l2.662,2.662l2.029-2.031
	l2.662,2.662l2.029-2.03l2.662,2.661l2.029-2.029l2.662,2.661l2.03-2.03l2.662,2.662l2.03-2.03l2.661,2.661l2.03-2.029l2.661,2.66
	l2.029-2.029l2.662,2.66l2.03-2.029l2.662,2.661l0.015-0.022c0.916,1.074,2.275,1.758,3.794,1.758h4.236
	c2.751,0,4.99-2.238,4.99-4.991v-10.851C86.904,104.731,84.666,102.493,81.915,102.493z M82.582,118.334
	c0,0.368-0.3,0.668-0.667,0.668h-3.056c-0.368,0-0.667-0.3-0.667-0.668l-1.181-10.851c0-0.367,0.3-0.668,0.668-0.668h4.236
	c0.367,0,0.667,0.301,0.667,0.668V118.334z"/>
</svg>
