<?xml version="1.0" encoding="utf-8"?>
<!-- Generator: Adobe Illustrator 16.2.0, SVG Export Plug-In . SVG Version: 6.00 Build 0)  -->
<!DOCTYPE svg PUBLIC "-//W3C//DTD SVG 1.1//EN" "http://www.w3.org/Graphics/SVG/1.1/DTD/svg11.dtd">
<svg version="1.1" id="Слой_1" xmlns="http://www.w3.org/2000/svg" xmlns:xlink="http://www.w3.org/1999/xlink" x="0px" y="0px"
	 width="141.5px" height="137.25px" viewBox="0 0 141.5 137.25" enable-background="new 0 0 141.5 137.25" xml:space="preserve">
<path fill="#F04E37" d="M76.499,44.297c0.932-2.154,2.458-2.154,3.389,0c0,0,1.245,2.878,2.96,4.593
	c1.714,1.715,4.592,2.961,4.592,2.961c2.155,0.932,2.155,2.457,0,3.389c0,0-2.878,1.245-4.592,2.959
	c-1.715,1.715-2.96,4.594-2.96,4.594c-0.932,2.154-2.458,2.154-3.389,0c0,0-1.245-2.879-2.96-4.594
	c-1.715-1.714-4.593-2.959-4.593-2.959c-2.154-0.932-2.154-2.457,0-3.389c0,0,2.878-1.246,4.593-2.961
	C75.253,47.175,76.499,44.297,76.499,44.297"/>
<rect x="16.5" y="26.15" fill="none" stroke="#1D1E1C" stroke-width="5" stroke-miterlimit="10" width="108.728" height="55.999"/>
<line fill="none" stroke="#1D1E1C" stroke-width="5" stroke-linecap="square" stroke-miterlimit="10" x1="16.5" y1="92.007" x2="125.228" y2="92.007"/>
<line fill="none" stroke="#1D1E1C" stroke-width="5" stroke-linecap="square" stroke-miterlimit="10" x1="16.5" y1="102.593" x2="125.228" y2="102.593"/>
<line fill="none" stroke="#1D1E1C" stroke-width="5" stroke-linecap="square" stroke-miterlimit="10" x1="16.5" y1="113.18" x2="125.228" y2="113.18"/>
<path fill="#029AD7" d="M48.884,25.544v56h58.618v-56H48.884z M78.193,74.18c-11.396,0-20.636-9.239-20.636-20.636
	S66.796,32.91,78.193,32.91s20.635,9.238,20.635,20.635S89.589,74.18,78.193,74.18z"/>
<line fill="none" stroke="#1D1E1C" stroke-width="5" stroke-miterlimit="10" x1="93.321" y1="32.652" x2="93.321" y2="52.384"/>
<circle fill="none" stroke="#1D1E1C" stroke-width="5" stroke-miterlimit="10" cx="108.556" cy="42.519" r="7.311"/>
<g>
	<rect x="23.247" y="64.542" fill="#029AD7" width="4.875" height="9.481"/>
	<circle fill="#029AD7" cx="35.974" cy="69.282" r="5.331"/>
</g>
</svg>
