<?xml version="1.0" encoding="utf-8"?>
<!-- Generator: Adobe Illustrator 16.2.0, SVG Export Plug-In . SVG Version: 6.00 Build 0)  -->
<!DOCTYPE svg PUBLIC "-//W3C//DTD SVG 1.1//EN" "http://www.w3.org/Graphics/SVG/1.1/DTD/svg11.dtd">
<svg version="1.1" id="Слой_1" xmlns="http://www.w3.org/2000/svg" xmlns:xlink="http://www.w3.org/1999/xlink" x="0px" y="0px"
	 width="141.5px" height="137.25px" viewBox="0 0 141.5 137.25" enable-background="new 0 0 141.5 137.25" xml:space="preserve">
<path fill="#1D1E1C" d="M103.089,45.633v12.859c3.552,0,6.43-2.879,6.43-6.431C109.519,48.512,106.642,45.633,103.089,45.633z"/>
<path fill="#1D1E1C" d="M58.356,45.633v12.859c-3.552,0-6.43-2.879-6.43-6.431C51.926,48.512,54.804,45.633,58.356,45.633z"/>
<path fill="none" stroke="#1D1E1C" stroke-width="4" stroke-miterlimit="10" d="M80.988,23.723h-0.035H49.272
	c0,0,0.781,13.121,9.614,14.2v22.571c0,12.757,9.464,14.661,22.067,14.747h0.035c12.62-0.083,22.101-1.979,22.101-14.747v-0.463
	V38.934v-0.463C103.089,25.704,93.608,23.807,80.988,23.723z"/>
<path fill="#FFFFFF" stroke="#1D1E1C" stroke-width="4" stroke-miterlimit="10" d="M14.776,44.518h8.208
	c1.636,0,2.975-1.339,2.975-2.975l0,0c0-1.637-1.339-2.977-2.975-2.977h-8.208c-1.636,0-2.976,1.34-2.976,2.977l0,0
	C11.8,43.179,13.14,44.518,14.776,44.518z"/>
<path fill="none" stroke="#1D1E1C" stroke-width="4" stroke-miterlimit="10" d="M65.217,72.258
	c-18.292,0-35.126-14.727-35.438-32.945c0.213-0.378-0.442-0.807-0.442-1.27V26.245c0-1.441-1.18-2.621-2.622-2.621
	s-3.408,1.18-3.408,2.621v6.744c-2.884,0-1.292,0-2.884,0c-4.996,0-8.749,0.749-8.749,5.745c0,26.081,19.448,47.691,44.602,51.126
	v34.704h54.863"/>
<path fill="none" stroke="#1D1E1C" stroke-width="4" stroke-miterlimit="10" d="M109.818,108.161l-33.438,2.162
	c-3.894,0-7.079,3.186-7.079,7.08l0,0c0,3.893,3.185,7.078,7.079,7.078l39.74,0.083c9.176,0,3.411-20.321,2.781-22.286
	c-4.352-13.571-9.158-24.534-22.08-29.327h-0.714"/>
<path fill="none" stroke="#1D1E1C" stroke-width="4" stroke-miterlimit="10" d="M80.988,23.723h-0.035H49.272
	c0,0,0.781,13.121,9.614,14.2v22.571c0,12.757,9.464,14.661,22.067,14.747h0.035c12.62-0.083,22.101-1.979,22.101-14.747v-0.463
	V38.934v-0.463C103.089,25.704,93.608,23.807,80.988,23.723z"/>
<path fill="#029AD7" d="M73.875,110.792l31.579-2.348v-8.001l11.435-4.063c-3.885-11.972-10.596-19.916-20.067-23.429h-0.714
	c0,0-4.604,2.849-17.454,2.291c-8.932-0.388-13.436-2.983-13.436-2.983c-5.783,0-11.418-1.476-16.434-4.064l-9.032,16.441
	c5.082,2.614,10.644,4.422,16.524,5.225v34.704h17.199c0,0-4.173-2.231-4.173-7.161C69.301,112.852,73.875,110.792,73.875,110.792z"
	/>
<circle fill="#FFFFFF" stroke="#1D1E1C" stroke-width="4" stroke-miterlimit="10" cx="89.844" cy="111.634" r="11.191"/>
<line fill="none" stroke="#1D1E1C" stroke-width="4" stroke-miterlimit="10" x1="89.844" y1="111.634" x2="89.844" y2="105.252"/>
<line fill="none" stroke="#1D1E1C" stroke-width="4" stroke-miterlimit="10" x1="105.454" y1="108.444" x2="104.326" y2="98.757"/>
<rect x="119.13" y="16.542" fill="#F04E37" width="10.127" height="25.848"/>
<circle fill="#F04E37" cx="124.194" cy="52.9" r="5.633"/>
</svg>
