<?xml version="1.0" encoding="utf-8"?>
<!-- Generator: Adobe Illustrator 16.2.0, SVG Export Plug-In . SVG Version: 6.00 Build 0)  -->
<!DOCTYPE svg PUBLIC "-//W3C//DTD SVG 1.1//EN" "http://www.w3.org/Graphics/SVG/1.1/DTD/svg11.dtd">
<svg version="1.1" id="Слой_1" xmlns="http://www.w3.org/2000/svg" xmlns:xlink="http://www.w3.org/1999/xlink" x="0px" y="0px"
	 width="141.5px" height="137.25px" viewBox="0 0 141.5 137.25" enable-background="new 0 0 141.5 137.25" xml:space="preserve">
<rect x="29.175" y="87.789" fill="none" stroke="#1D1E1C" stroke-width="4" stroke-miterlimit="10" width="50.347" height="32.391"/>
<rect x="27.795" y="47.63" fill="#029AD7" width="9.293" height="18.167"/>
<rect x="50.295" y="47.63" fill="#029AD7" width="9.293" height="18.167"/>
<rect x="72.709" y="47.63" fill="#029AD7" width="9.293" height="18.167"/>
<rect x="29.666" y="88.187" fill="#029AD7" width="42.099" height="16.323"/>
<rect x="29.666" y="87.789" fill="none" stroke="#221E20" stroke-width="4" stroke-miterlimit="10" width="49.856" height="32.391"/>
<rect x="68.538" y="92.159" fill="#029AD7" width="6.966" height="15.034"/>
<line fill="none" stroke="#1D1E1C" stroke-width="4" stroke-miterlimit="10" x1="26.764" y1="65.797" x2="38.119" y2="65.797"/>
<line fill="none" stroke="#1D1E1C" stroke-width="4" stroke-miterlimit="10" x1="49.264" y1="65.797" x2="60.62" y2="65.797"/>
<line fill="none" stroke="#1D1E1C" stroke-width="4" stroke-miterlimit="10" x1="71.765" y1="65.797" x2="83.12" y2="65.797"/>
<line fill="none" stroke="#1D1E1C" stroke-width="4" stroke-miterlimit="10" x1="16.655" y1="108.364" x2="29.666" y2="108.364"/>
<line fill="none" stroke="#1D1E1C" stroke-width="4" stroke-miterlimit="10" x1="78.652" y1="108.364" x2="93.479" y2="108.364"/>
<rect x="23.161" y="77.291" fill="#F04E37" width="62.964" height="10.672"/>
<path fill="none" stroke="#221E20" stroke-width="4" stroke-miterlimit="10" d="M91.82,40.914
	c-7.797-0.711-13.906-7.264-13.906-15.246h-3.812v-5.332h-5.811c0-7.373-5.977-13.351-13.35-13.351s-13.35,5.978-13.35,13.351
	h-5.811v5.332h-3.812c0,7.982-6.109,14.535-13.906,15.246h-1.408v79.266h76.573V40.914H91.82z"/>
<rect x="69.836" y="72.172" fill="#FFFFFF" stroke="#221E20" stroke-width="4" stroke-miterlimit="10" width="55.008" height="55.008"/>
<circle fill="#F04E37" cx="84.581" cy="112.436" r="6.551"/>
<circle fill="#F04E37" cx="97.341" cy="99.676" r="6.551"/>
<circle fill="#F04E37" cx="110.101" cy="86.916" r="6.551"/>
</svg>
