<?xml version="1.0" encoding="utf-8"?>
<!-- Generator: Adobe Illustrator 16.2.0, SVG Export Plug-In . SVG Version: 6.00 Build 0)  -->
<!DOCTYPE svg PUBLIC "-//W3C//DTD SVG 1.1//EN" "http://www.w3.org/Graphics/SVG/1.1/DTD/svg11.dtd">
<svg version="1.1" id="Слой_1" xmlns="http://www.w3.org/2000/svg" xmlns:xlink="http://www.w3.org/1999/xlink" x="0px" y="0px"
	 width="127.75px" height="124px" viewBox="0 0 127.75 124" enable-background="new 0 0 127.75 124" xml:space="preserve">
<g>
	<polygon fill="#029AD7" points="43.159,30.736 26.876,72.205 43.159,72.205 59.443,72.205 	"/>
	<g>
		<polygon fill="#F04E37" points="109.379,1.797 84.28,37.153 101.388,40.669 118.495,44.187 		"/>
		<g>
			<polygon fill="#029AD7" points="113.974,23.16 96.73,19.615 93.357,24.367 115.198,28.857 			"/>
			<polygon fill="#029AD7" points="99.359,15.912 113.019,18.719 111.793,13.023 102.732,11.16 			"/>
			<polygon fill="#029AD7" points="116.153,33.296 90.729,28.07 87.354,32.822 117.378,38.994 			"/>
		</g>
	</g>
	<path fill="#1D1E1C" d="M115.758,53.222v10.885c3.007,0,5.442-2.438,5.442-5.443C121.2,55.659,118.765,53.222,115.758,53.222z"/>
	<path fill="#1D1E1C" d="M77.891,53.222v10.885c-3.006,0-5.442-2.438-5.442-5.443C72.448,55.659,74.885,53.222,77.891,53.222z"/>
	<path fill="none" stroke="#1D1E1C" stroke-width="4" stroke-miterlimit="10" d="M97.049,34.675H97.02H70.202
		c0,0,0.661,11.106,8.139,12.02v19.107c0,10.798,8.011,12.41,18.679,12.482h0.029c10.683-0.069,18.709-1.676,18.709-12.482V65.41
		V47.551V47.16C115.758,36.351,107.731,34.746,97.049,34.675z"/>
	<path fill="#1D1E1C" d="M63.999,85.648v10.885c3.007,0,5.442-2.438,5.442-5.443C69.441,88.084,67.006,85.648,63.999,85.648z"/>
	<path fill="#1D1E1C" d="M26.132,85.648v10.885c-3.006,0-5.442-2.438-5.442-5.443C20.689,88.084,23.126,85.648,26.132,85.648z"/>
	<path fill="none" stroke="#1D1E1C" stroke-width="4" stroke-miterlimit="10" d="M45.29,64.955h-0.029H43.83h-0.066h-1.343h-1.362
		h-0.03c-10.683,0.07-18.708,3.822-18.708,14.631v0.392v3.333h4.262v9.549c0,10.799,8.011,17.779,18.679,17.853h0.029
		c10.683-0.071,18.709-7.045,18.709-17.853v-0.392v-12.49v-0.392C63.999,68.777,55.973,65.025,45.29,64.955z"/>
	<line fill="none" stroke="#1D1E1C" stroke-width="4" stroke-miterlimit="10" x1="22.32" y1="83.31" x2="53.248" y2="83.31"/>
	<circle fill="#F04E37" cx="67.667" cy="99.91" r="5.443"/>
	<circle fill="#F04E37" cx="22.32" cy="99.91" r="5.442"/>
	<path fill="none" stroke="#1D1E1C" stroke-width="4" stroke-miterlimit="10" d="M69.452,99.032
		c2.117-2.221,7.833-0.204,12.77,4.503c4.934,4.707,5.102,12.541,5.102,12.541s-7.834,0.205-12.77-4.503
		C69.618,106.866,67.335,101.251,69.452,99.032z"/>
	<path fill="none" stroke="#1D1E1C" stroke-width="4" stroke-miterlimit="10" d="M22.621,99.032
		c-2.117-2.221-7.833-0.204-12.769,4.503c-4.935,4.707-5.103,12.541-5.103,12.541s7.834,0.205,12.77-4.503
		C22.455,106.866,24.738,101.251,22.621,99.032z"/>
	<path fill="#F04E37" d="M110.111,90.562c0.764-1.764,2.012-1.764,2.774,0c0,0,1.019,2.354,2.422,3.758s3.758,2.422,3.758,2.422
		c1.764,0.764,1.764,2.012,0,2.773c0,0-2.354,1.02-3.758,2.422c-1.403,1.404-2.422,3.76-2.422,3.76
		c-0.763,1.763-2.011,1.763-2.774,0c0,0-1.019-2.355-2.422-3.76c-1.403-1.402-3.759-2.422-3.759-2.422
		c-1.763-0.762-1.763-2.01,0-2.773c0,0,2.355-1.019,3.759-2.422S110.111,90.562,110.111,90.562"/>
	<path fill="#F04E37" d="M60.291,10.474c0.566-1.308,1.492-1.308,2.059,0c0,0,0.756,1.748,1.797,2.789s2.788,1.797,2.788,1.797
		c1.309,0.566,1.309,1.492,0,2.059c0,0-1.747,0.756-2.788,1.797s-1.797,2.788-1.797,2.788c-0.566,1.308-1.492,1.308-2.059,0
		c0,0-0.756-1.747-1.797-2.788s-2.788-1.797-2.788-1.797c-1.309-0.566-1.309-1.492,0-2.059c0,0,1.747-0.756,2.788-1.797
		S60.291,10.474,60.291,10.474"/>
	<path fill="#F04E37" d="M19.833,41.299c0.471-1.09,1.242-1.09,1.714,0c0,0,0.63,1.456,1.497,2.323
		c0.866,0.867,2.322,1.496,2.322,1.496c1.09,0.472,1.09,1.243,0,1.715c0,0-1.456,0.629-2.322,1.496
		c-0.867,0.867-1.497,2.323-1.497,2.323c-0.472,1.089-1.243,1.089-1.714,0c0,0-0.63-1.456-1.497-2.323s-2.323-1.496-2.323-1.496
		c-1.089-0.472-1.089-1.243,0-1.715c0,0,1.456-0.629,2.323-1.496S19.833,41.299,19.833,41.299"/>
</g>
</svg>
